<?xml version="1.0" encoding="utf-8"?>
<!-- Generator: Adobe Illustrator 16.0.0, SVG Export Plug-In . SVG Version: 6.00 Build 0)  -->
<!DOCTYPE svg PUBLIC "-//W3C//DTD SVG 1.1//EN" "http://www.w3.org/Graphics/SVG/1.1/DTD/svg11.dtd">
<svg version="1.1" id="Layer_1" xmlns="http://www.w3.org/2000/svg" xmlns:xlink="http://www.w3.org/1999/xlink" x="0px" y="0px"
	 width="1024px" height="1024px" viewBox="0 0 1024 1024" enable-background="new 0 0 1024 1024" xml:space="preserve">
<rect fill="none" width="1024" height="1024"/>
<g>
	<g>
		<path d="M633.027,820.844l374.145-278.165c10.735-7.936,16.827-19.149,16.827-30.683c0-11.583-6.092-22.675-16.827-30.7
			L633.027,203.221c-19.297-14.231-36.756-10.422-43.441-8.134c-6.76,2.387-22.25,10.061-22.25,30.993c0,0,0,98.36,0,98.478
			c0,0,0,0,0,0.054c-0.167,0-292.221,0-292.221,0c-30.032,0-54.455,19.464-54.455,43.342v288.149c0,23.851,24.423,43.4,54.455,43.4
			c0,0,292.054,0,292.221,0v0.067c0,0.05,0,98.478,0,98.478c0,20.892,15.49,28.583,22.139,30.835
			C596.271,831.171,613.73,835.035,633.027,820.844z"/>
	</g>
	<path d="M220.661,110.032c27.729,0,50.202,16.447,50.202,36.739v47.467l-99.215-10.7c-27.785,0-50.259,16.42-50.259,36.739v583.438
		c0,20.283,22.474,36.748,50.259,36.748l99.215-10.7v47.467c0,20.266-22.473,36.73-50.202,36.73L50.258,932.352
		C22.455,932.352,0,915.852,0,895.604V128.41c0-20.315,22.455-36.762,50.258-36.762L220.661,110.032z"/>
</g>
</svg>
