<?xml version="1.0" encoding="utf-8"?>
<!-- Generator: Adobe Illustrator 24.1.3, SVG Export Plug-In . SVG Version: 6.00 Build 0)  -->
<svg version="1.1" id="Layer_2" xmlns="http://www.w3.org/2000/svg" xmlns:xlink="http://www.w3.org/1999/xlink" x="0px" y="0px"
	 viewBox="0 0 1024 1024" style="enable-background:new 0 0 1024 1024;" xml:space="preserve">
<g>
	<path d="M638.37,676.23l37.87-37.87c9-9,9-23.58,0-32.58l-80.68-80.68c94.93-129,84.08-312-32.56-428.65
		c-128.63-128.61-337.89-128.62-466.54,0c-128.61,128.62-128.61,337.9,0.01,466.53c64.31,64.31,148.79,96.46,233.27,96.46
		c68.75,0,137.5-21.31,195.38-63.9l80.68,80.68C614.78,685.23,629.37,685.23,638.37,676.23z M513.3,146.14
		c101.23,101.23,101.23,265.94,0,367.17c-101.2,101.24-265.93,101.22-367.16,0C44.92,412.08,44.92,247.37,146.14,146.14
		c50.63-50.62,117.1-75.92,183.6-75.92C396.21,70.22,462.7,95.53,513.3,146.14z"/>
	<path d="M1012.01,888.5L769.38,645.87c-16-16-41.94-16-57.94,0l-65.56,65.56c-16,16-16,41.94,0,57.94L888.51,1012
		c16,16,41.94,16,57.94,0l65.56-65.56C1028,930.44,1028,904.5,1012.01,888.5z M930.71,864.45c-6.05,6.05-15.86,6.05-21.91,0
		L748.83,704.48c-6.05-6.05-6.05-15.86,0-21.91c6.05-6.05,15.86-6.05,21.91,0l159.97,159.97
		C936.76,848.59,936.76,858.4,930.71,864.45z"/>
	<path d="M188.35,212.17c6.1,0,12.2-2.32,16.85-6.98c14.53-14.53,31.32-26.11,49.44-34.63c19.04-8.95,39.56-14.45,60.53-16.23
		c19.97-1.69,40.32-0.07,60.19,5.24c12.72,3.4,25.77-4.17,29.17-16.88c3.4-12.71-4.15-25.78-16.87-29.17
		c-77-20.56-159.84,1.64-216.15,57.95c-9.31,9.31-9.31,24.4,0,33.71C176.15,209.85,182.25,212.17,188.35,212.17z"/>
	<path d="M433.56,187.43c7.3,5.35,14.26,11.32,20.71,17.77c4.65,4.65,10.75,6.98,16.85,6.98c6.1,0,12.2-2.32,16.85-6.98
		c9.31-9.31,9.31-24.4,0-33.71c-8.16-8.16-16.99-15.73-26.25-22.51c-10.63-7.81-25.54-5.46-33.31,5.14
		C420.64,164.74,422.93,179.65,433.56,187.43z"/>
</g>
</svg>
